<svg width="140" height="97" viewBox="0 0 140 97" fill="none" xmlns="http://www.w3.org/2000/svg">
<path fill-rule="evenodd" clip-rule="evenodd" d="M140 71.2185C140 85.1828 128.839 96.5 115.068 96.5C102.304 96.5 91.7737 86.7643 90.3137 74.2245H10.8177C4.84475 74.2245 0 69.3118 0 63.255V11.4695C0 5.41272 4.84475 0.5 10.8177 0.5H107.149C113.122 0.5 117.966 5.41272 117.966 11.4695L117.955 46.1165C130.366 47.5634 140 58.2525 140 71.2185ZM107.149 6.39975H10.8177C8.06352 6.39975 5.82919 8.66544 5.82919 11.4583V63.255C5.82919 66.0478 8.06352 68.3135 10.8177 68.3135H90.3026C91.6078 56.6935 100.689 47.4625 112.137 46.1053L112.148 11.4583C112.137 8.66544 109.903 6.39975 107.149 6.39975ZM115.068 51.7695C109.947 51.7695 105.124 53.7885 101.507 57.4674C97.8794 61.1463 95.8885 66.0254 95.8885 71.2185C95.8885 76.4117 97.8794 81.302 101.507 84.9697C105.136 88.6486 109.947 90.6675 115.068 90.6675C120.19 90.6675 125.012 88.6486 128.629 84.9697C132.257 81.2907 134.248 76.4117 134.248 71.2185C134.248 66.0254 132.257 61.1351 128.629 57.4674C125.001 53.7885 120.19 51.7695 115.068 51.7695ZM103.012 26.9928H68.2468C66.643 26.9928 65.3378 25.6693 65.3378 24.0429C65.3378 22.4166 66.643 21.0931 68.2468 21.0931H103.023C104.627 21.0931 105.932 22.4166 105.932 24.0429C105.921 25.6693 104.627 26.9928 103.012 26.9928ZM50.9805 58.8694H16.8018C13.4171 58.8694 11.227 55.2241 12.7534 52.1397C16.6469 44.2771 24.6551 38.8708 33.8911 38.8708C43.1271 38.8708 51.1353 44.2659 55.0288 52.1397C56.5442 55.2354 54.3652 58.8694 50.9805 58.8694ZM33.8801 33.6665C29.0353 33.6665 25.0976 29.6735 25.0976 24.7608C25.0976 19.8368 29.0243 15.8551 33.8801 15.8551C38.7248 15.8551 42.6626 19.8481 42.6626 24.7608C42.6626 29.6847 38.7359 33.6665 33.8801 33.6665ZM68.2468 34.575H96.2977C97.9016 34.575 99.2068 35.8985 99.2068 37.5249C99.2068 39.1512 97.9016 40.4748 96.2977 40.4748H68.2468C66.643 40.4748 65.3378 39.1512 65.3378 37.5249C65.3267 35.8985 66.6319 34.575 68.2468 34.575ZM68.2468 48.0794H83.2014C84.8053 48.0794 86.1105 49.4029 86.1105 51.0293C86.1105 52.6556 84.8053 53.9791 83.2014 53.9791H68.2468C66.643 53.9791 65.3378 52.6556 65.3378 51.0293C65.3267 49.4029 66.6319 48.0794 68.2468 48.0794Z" fill="#CCCCCC"/>
<path fill-rule="evenodd" clip-rule="evenodd" d="M124.234 61.3787C125.397 62.5503 125.397 64.4497 124.234 65.6213L109.34 80.6213C108.177 81.7929 106.291 81.7929 105.128 80.6213C103.965 79.4498 103.965 77.5502 105.128 76.3787L120.021 61.3787C121.185 60.2071 123.071 60.2071 124.234 61.3787Z" fill="#CCCCCC"/>
<path fill-rule="evenodd" clip-rule="evenodd" d="M105.128 61.3787C106.291 60.2071 108.177 60.2071 109.34 61.3787L124.234 76.3787C125.397 77.5502 125.397 79.4498 124.234 80.6213C123.071 81.7929 121.185 81.7929 120.021 80.6213L105.128 65.6213C103.965 64.4497 103.965 62.5503 105.128 61.3787Z" fill="#CCCCCC"/>
</svg>
